<svg width="992" height="1120" viewBox="0 0 992 1120" fill="none" xmlns="http://www.w3.org/2000/svg">
<g filter="url(#filter0_d_3158_158236)">
<path d="M182 381C182 367.745 192.745 357 206 357H808V897H206C192.745 897 182 886.255 182 873V381Z" fill="white"/>
</g>
<mask id="mask0_3158_158236" style="mask-type:alpha" maskUnits="userSpaceOnUse" x="0" y="0" width="992" height="1120">
<g style="mix-blend-mode:hard-light">
<path fill-rule="evenodd" clip-rule="evenodd" d="M381.977 0C375.663 0 370.542 4.70896 370.542 10.5199V663.81C370.542 727.791 426.893 779.659 496.402 779.659C565.917 779.659 622.262 727.791 622.262 663.81V452.634V241.458C622.262 235.656 627.373 230.952 633.676 230.952H729.671C735.974 230.952 741.085 235.656 741.085 241.458V689.559C727.136 801.347 624.737 888.363 499.924 889.785C362.982 891.341 250.915 785.762 250.915 659.703V10.5014C250.915 4.70433 245.804 0 239.501 0H11.4139C5.11589 0 0 4.70433 0 10.5014V664.338C0 917.65 224.138 1121.89 499.823 1119.99C773.269 1118.1 992 909.519 992 657.819V10.5199C992 4.70896 986.884 0 980.576 0H381.977Z" fill="#FFF2E8"/>
</g>
</mask>
<g mask="url(#mask0_3158_158236)">
<path d="M183 381C183 367.745 193.745 357 207 357H809V897H207C193.745 897 183 886.255 183 873V381Z" fill="#FFF2E8"/>
</g>
<g clip-path="url(#clip0_3158_158236)">
<path d="M572.454 735.481C573.639 736.114 574.99 736.368 576.324 736.207C577.658 736.047 578.911 735.481 579.912 734.585C580.913 733.69 581.615 732.508 581.922 731.201C582.229 729.893 582.126 728.523 581.628 727.276C581.761 726.612 581.857 726.135 581.991 725.472C584.554 723.08 587.774 721.508 591.237 720.957C594.7 720.406 598.249 720.902 601.428 722.38C604.608 723.858 607.273 726.252 609.083 729.255C610.893 732.257 611.764 735.731 611.585 739.232C610.774 758.975 611.75 780.279 598.622 796.195C658.537 747.254 685.855 663.883 667.558 588.897C658.58 576.392 654.392 559.779 658.418 544.724C663.471 549.636 673.32 548.317 671.815 539.814C671.007 536.453 670.172 533.103 669.364 529.742C703.873 516.281 712.883 567.572 672.006 588.455C675.322 602.711 677.138 617.275 677.424 631.908C682.039 618.713 689.721 606.802 699.84 597.154C709.636 588.337 722.59 583.152 734.641 577.237C749.306 570.02 765.581 584.328 759.807 599.602C750.045 598.354 743.138 610.017 751.996 616.285C736.437 642.405 706.604 659.007 676.293 659.27C673.227 689.074 663.842 717.883 648.763 743.776C668.126 714.344 705.599 722.818 735.214 721.564C737.179 721.316 739.173 721.645 740.954 722.511C742.735 723.378 744.225 724.743 745.243 726.441C746.261 728.14 746.762 730.097 746.686 732.075C746.609 734.053 745.959 735.967 744.813 737.582C740.917 737.353 737.009 737.512 733.144 738.056C731.326 738.325 729.637 739.15 728.306 740.417C726.976 741.683 726.07 743.331 725.713 745.132C725.356 746.934 725.565 748.802 726.311 750.48C727.058 752.159 728.305 753.565 729.883 754.507C703.905 778.313 663.65 783.43 632.056 768.239C622.715 780.001 612.177 790.76 600.611 800.343L553.641 777.962C553.721 777.36 553.826 776.75 553.924 776.156C558.141 778.501 562.63 780.32 567.29 781.575C562.279 762.48 556.695 751.296 572.452 735.481H572.454Z" fill="#DFDFDF"/>
<path d="M489.457 690.312C488.598 691.345 487.442 692.089 486.147 692.444C484.851 692.798 483.477 692.746 482.212 692.294C480.947 691.842 479.851 691.013 479.073 689.918C478.295 688.822 477.873 687.515 477.864 686.172C477.49 685.607 477.221 685.202 476.847 684.638C473.571 683.389 469.996 683.147 466.58 683.943C463.165 684.739 460.066 686.536 457.679 689.104C455.292 691.672 453.727 694.894 453.184 698.357C452.641 701.82 453.145 705.366 454.631 708.541C462.833 726.519 469.968 746.617 488.132 756.407C414.176 733.674 357.414 666.761 346.064 590.416C349.66 575.449 347.27 558.484 337.86 546.06C335.034 552.514 325.415 555.005 323.6 546.563C323.08 543.146 322.589 539.728 322.069 536.311C285.03 536.856 296.04 587.755 341.778 591.683C344.087 606.136 347.9 620.309 353.157 633.97C343.904 623.489 332.294 615.354 319.282 610.234C306.882 605.762 292.929 605.845 279.536 604.91C263.231 603.756 253.558 623.143 264.669 635.112C273.239 630.275 284.037 638.473 278.198 647.618C302.464 665.942 336.358 670.068 364.53 658.883C378.615 685.33 398.178 708.472 421.915 726.767C392.875 706.81 361.368 728.787 333.468 738.792C331.555 739.303 329.832 740.36 328.509 741.834C327.187 743.308 326.322 745.134 326.02 747.09C325.719 749.047 325.993 751.049 326.81 752.852C327.627 754.656 328.952 756.182 330.622 757.246C334.144 755.565 337.824 754.239 341.608 753.285C343.393 752.849 345.269 752.976 346.98 753.647C348.69 754.319 350.15 755.503 351.161 757.037C352.172 758.571 352.683 760.38 352.625 762.216C352.567 764.051 351.942 765.824 350.836 767.291C383.879 779.544 423.091 769.105 446.619 743.124C459.708 750.494 473.528 756.485 487.856 760.999L522.911 722.562C522.609 722.034 522.281 721.508 521.967 720.995C518.946 724.757 515.476 728.135 511.633 731.053C509.069 711.48 510.019 699.017 489.458 690.311L489.457 690.312Z" fill="#DFDFDF"/>
<path d="M498.479 527.891C499.815 527.756 501.078 527.214 502.096 526.337C503.114 525.461 503.838 524.293 504.17 522.991C504.502 521.69 504.425 520.318 503.951 519.061C503.476 517.805 502.627 516.724 501.518 515.967C501.258 515.341 501.072 514.892 500.813 514.267C501.607 510.853 503.403 507.753 505.97 505.366C508.538 502.979 511.76 501.412 515.224 500.867C518.688 500.323 522.236 500.824 525.413 502.308C528.59 503.792 531.251 506.191 533.056 509.196C543.394 526.038 556.086 543.179 554.066 563.708C576.507 489.689 552.682 405.253 495.668 353.202C481.24 347.824 468.497 336.367 463.442 321.626C470.376 322.887 477.816 316.303 471.824 310.083C469.279 307.743 466.717 305.427 464.172 303.088C485.312 272.681 521.399 310.238 499.114 350.356C509.818 360.342 519.449 371.42 527.849 383.408C524.32 369.883 524.054 355.713 527.072 342.064C530.287 329.285 538.148 317.761 544.853 306.134C553.001 291.97 574.492 294.777 578.219 310.675C569.419 315.079 570.19 328.612 581.04 328.877C582.693 359.232 567.187 389.641 542.171 406.753C556.251 433.203 564.528 462.349 566.453 492.248C566.111 457.023 601.945 443.173 625.83 425.627C627.323 424.326 629.162 423.488 631.124 423.215C633.085 422.941 635.084 423.244 636.876 424.087C638.668 424.929 640.176 426.275 641.216 427.96C642.256 429.644 642.783 431.595 642.733 433.574C639.371 435.556 636.215 437.866 633.31 440.472C631.952 441.708 631.009 443.334 630.611 445.128C630.213 446.921 630.38 448.793 631.088 450.488C631.797 452.183 633.012 453.617 634.568 454.594C636.124 455.571 637.944 456.043 639.779 455.946C631.492 490.187 600.929 516.87 566.229 521.867C565.035 536.837 562.287 551.642 558.031 566.044L506.556 573.642C506.287 573.098 506.033 572.532 505.783 571.985C510.592 571.581 515.333 570.59 519.901 569.034C505.091 555.976 494.218 549.803 498.477 527.892L498.479 527.891Z" fill="#DFDFDF"/>
<path d="M550.25 511.393C526.815 511.393 514.104 508.53 509.665 502.42C505.748 497.028 508.374 489.915 511.415 481.678C513.6 475.758 516.077 469.048 516.077 462.407C516.077 430.107 532.461 413.729 564.774 413.729C580.852 413.729 598.114 422.266 610.952 436.566C622.622 449.566 628.436 465.125 626.903 479.253C625.645 490.839 620.25 498.459 609.923 503.233L609.319 503.513L609.148 502.87C608.256 499.544 606.747 496.416 604.699 493.648C604.5 497.993 603.404 502.25 601.48 506.152L601.37 506.374L601.132 506.442C589.445 509.77 575.574 510.672 564.796 511.085C559.55 511.289 554.701 511.392 550.25 511.393Z" fill="#2F2E41"/>
<path d="M556.638 556.397C555.739 553.758 554.224 551.371 552.218 549.434C550.213 547.497 547.773 546.066 545.104 545.261C542.434 544.455 539.61 544.297 536.867 544.8C534.124 545.304 531.541 546.454 529.331 548.155L452.247 594.223L428.126 535.392C430.164 532.403 431.203 528.847 431.093 525.232C430.984 521.618 429.732 518.131 427.517 515.271C425.303 512.412 422.239 510.327 418.766 509.315C415.292 508.304 411.588 508.418 408.183 509.641C404.779 510.864 401.85 513.134 399.815 516.124C397.781 519.115 396.747 522.672 396.86 526.287C396.973 529.901 398.229 533.387 400.447 536.244C402.665 539.101 405.731 541.183 409.205 542.19C410.692 559.155 418.954 634.982 447.697 632.226C471.857 629.909 531.855 589.967 550.49 576.119C553.472 573.905 555.673 570.803 556.778 567.259C557.883 563.715 557.834 559.911 556.638 556.397Z" fill="#FFB6B6"/>
<path d="M614.726 891H547.635L536.385 835.395L532.735 891H470.413C470.437 847.333 472.713 803.696 477.231 760.262L478.003 757.633L479.223 753.425L479.996 750.784L492.892 706.515L493.911 703.001H571.57C576.039 707.197 580.161 711.748 583.896 716.608C585.161 718.22 586.482 719.966 587.836 721.846C588.777 723.177 589.751 724.576 590.724 726.042C599.378 738.919 605.846 753.136 609.868 768.118V768.129C610.551 770.692 611.155 773.314 611.681 775.996V776.007C612.152 778.391 612.566 780.808 612.89 783.281C613.137 785.083 613.349 786.907 613.506 788.753C614.439 798.983 614.112 809.288 612.532 819.437L614.726 891Z" fill="#2F2E41"/>
<path d="M259.01 382.554C263.367 380.868 265.948 377.045 264.775 374.015C263.601 370.985 259.118 369.896 254.761 371.582C250.404 373.268 247.823 377.091 248.997 380.12C250.17 383.15 254.653 384.24 259.01 382.554Z" fill="#E6E6E6"/>
<path d="M313.868 375.519C318.226 373.833 320.806 370.01 319.633 366.981C318.46 363.951 313.977 362.862 309.62 364.547C305.263 366.233 302.682 370.056 303.855 373.086C305.028 376.116 309.511 377.205 313.868 375.519Z" fill="#3F3D56"/>
<path d="M254.252 429.339C258.609 427.653 261.19 423.83 260.017 420.8C258.844 417.77 254.36 416.681 250.003 418.367C245.646 420.053 243.065 423.876 244.239 426.906C245.412 429.935 249.895 431.025 254.252 429.339Z" fill="#FF6584"/>
<path d="M238.382 449.976C240.381 449.503 241.45 446.791 240.77 443.919C240.09 441.047 237.918 439.102 235.919 439.575C233.92 440.048 232.851 442.759 233.531 445.632C234.211 448.504 236.383 450.449 238.382 449.976Z" fill="#E6E6E6"/>
<path d="M238.056 484.915C240.055 484.442 241.124 481.731 240.444 478.858C239.764 475.986 237.592 474.041 235.593 474.514C233.594 474.987 232.525 477.699 233.205 480.571C233.885 483.443 236.057 485.388 238.056 484.915Z" fill="#3F3D56"/>
<path d="M286.203 412.548C288.202 412.075 289.271 409.363 288.591 406.491C287.911 403.618 285.739 401.673 283.74 402.146C281.741 402.619 280.672 405.331 281.353 408.203C282.033 411.076 284.204 413.021 286.203 412.548Z" fill="#E6E6E6"/>
<path d="M257.311 405.534C259.31 405.061 260.379 402.35 259.698 399.477C259.018 396.605 256.847 394.66 254.848 395.133C252.849 395.606 251.78 398.318 252.46 401.19C253.14 404.062 255.312 406.007 257.311 405.534Z" fill="#FF6584"/>
<path d="M287.935 373.361C289.934 372.888 291.003 370.176 290.323 367.304C289.642 364.432 287.471 362.487 285.472 362.96C283.473 363.433 282.404 366.144 283.084 369.017C283.764 371.889 285.936 373.834 287.935 373.361Z" fill="#3F3D56"/>
<path d="M302.178 615.183C304.284 612.709 303.108 608.25 299.55 605.222C295.993 602.195 291.401 601.747 289.294 604.221C287.187 606.695 288.364 611.154 291.921 614.181C295.479 617.209 300.071 617.657 302.178 615.183Z" fill="#E6E6E6"/>
<path d="M269.868 570.311C271.975 567.837 270.799 563.377 267.241 560.35C263.683 557.323 259.091 556.874 256.984 559.348C254.878 561.822 256.054 566.282 259.612 569.309C263.17 572.336 267.761 572.785 269.868 570.311Z" fill="#3F3D56"/>
<path d="M345.601 597.089C347.707 594.615 346.531 590.155 342.973 587.128C339.415 584.101 334.824 583.652 332.717 586.126C330.61 588.6 331.786 593.06 335.344 596.087C338.902 599.114 343.494 599.562 345.601 597.089Z" fill="#FF6584"/>
<path d="M367.172 597.584C369.375 595.619 370.052 592.784 368.685 591.252C367.317 589.72 364.422 590.071 362.219 592.037C360.016 594.002 359.339 596.837 360.707 598.369C362.075 599.901 364.97 599.55 367.172 597.584Z" fill="#E6E6E6"/>
<path d="M398.065 581.235C400.268 579.27 400.945 576.434 399.577 574.903C398.209 573.371 395.315 573.722 393.112 575.688C390.909 577.653 390.232 580.488 391.6 582.02C392.967 583.552 395.862 583.2 398.065 581.235Z" fill="#3F3D56"/>
<path d="M311.476 573.369C313.679 571.404 314.356 568.569 312.988 567.037C311.62 565.505 308.726 565.857 306.523 567.822C304.32 569.788 303.643 572.623 305.011 574.155C306.379 575.686 309.273 575.335 311.476 573.369Z" fill="#E6E6E6"/>
<path d="M319.064 602.106C321.267 600.141 321.944 597.306 320.576 595.774C319.208 594.242 316.314 594.593 314.111 596.559C311.908 598.524 311.231 601.359 312.599 602.891C313.966 604.423 316.861 604.071 319.064 602.106Z" fill="#FF6584"/>
<path d="M276.178 590.506C278.381 588.541 279.058 585.706 277.69 584.174C276.323 582.642 273.428 582.993 271.225 584.959C269.022 586.924 268.345 589.759 269.713 591.291C271.081 592.823 273.975 592.472 276.178 590.506Z" fill="#3F3D56"/>
<path d="M519.231 327.387C522.148 325.954 522.84 321.394 520.778 317.203C518.717 313.012 514.681 310.777 511.764 312.211C508.848 313.645 508.155 318.204 510.217 322.395C512.279 326.586 516.314 328.821 519.231 327.387Z" fill="#E6E6E6"/>
<path d="M531.048 381.397C533.965 379.963 534.658 375.404 532.596 371.213C530.534 367.022 526.498 364.787 523.582 366.221C520.665 367.655 519.972 372.214 522.034 376.405C524.096 380.596 528.132 382.831 531.048 381.397Z" fill="#3F3D56"/>
<path d="M472.191 326.749C475.107 325.315 475.8 320.756 473.738 316.565C471.677 312.374 467.641 310.139 464.724 311.573C461.808 313.006 461.115 317.566 463.177 321.757C465.239 325.948 469.274 328.183 472.191 326.749Z" fill="#FF6584"/>
<path d="M447.466 309.609C450.268 308.68 452.016 306.347 451.37 304.399C450.723 302.45 447.927 301.623 445.125 302.552C442.322 303.48 440.574 305.813 441.22 307.762C441.867 309.711 444.663 310.538 447.466 309.609Z" fill="#E6E6E6"/>
<path d="M412.618 312.346C415.421 311.417 417.169 309.084 416.522 307.135C415.876 305.186 413.08 304.359 410.277 305.288C407.474 306.217 405.726 308.55 406.373 310.499C407.019 312.448 409.815 313.275 412.618 312.346Z" fill="#3F3D56"/>
<path d="M488.955 353.949C491.758 353.02 493.506 350.687 492.859 348.738C492.213 346.789 489.417 345.962 486.614 346.891C483.811 347.82 482.063 350.153 482.71 352.102C483.356 354.051 486.152 354.878 488.955 353.949Z" fill="#E6E6E6"/>
<path d="M493.412 324.564C496.215 323.635 497.963 321.302 497.316 319.353C496.67 317.404 493.874 316.577 491.071 317.506C488.268 318.435 486.52 320.768 487.167 322.717C487.813 324.666 490.609 325.493 493.412 324.564Z" fill="#FF6584"/>
<path d="M528.158 352.239C530.961 351.31 532.709 348.977 532.062 347.028C531.416 345.079 528.62 344.253 525.817 345.181C523.014 346.11 521.266 348.443 521.913 350.392C522.559 352.341 525.355 353.168 528.158 352.239Z" fill="#3F3D56"/>
<path d="M538.916 520.385L575.877 518.482L593.045 545.597C593.045 545.597 625.346 550.996 623.107 589.043C620.868 627.09 583.806 660.477 583.806 660.477L585.39 680.291L582.639 688.149L582.992 692.562L586.745 697.235L587.132 702.068L583.806 709.715L588.329 717.037L493.246 707.828L489.769 695.168L494.841 688.369L492.008 679.501L496.267 670.972L498.488 643.878C498.488 643.878 474.191 607.389 502.084 579.906L513.278 560.883L525.805 545.606L538.916 520.385Z" fill="#474C7C"/>
<path d="M557.29 512.729C578.92 512.729 596.455 495.201 596.455 473.58C596.455 451.958 578.92 434.431 557.29 434.431C535.66 434.431 518.126 451.958 518.126 473.58C518.126 495.201 535.66 512.729 557.29 512.729Z" fill="#FFB6B6"/>
<path d="M552.047 471.207C548.672 471.207 545.299 471.112 541.928 470.922L541.326 470.888L541.405 470.29C541.901 466.553 541.622 462.754 540.584 459.13C538.821 463.257 536.198 466.96 532.89 469.993L532.703 470.164L532.451 470.136C523.295 469.135 514.223 467.481 505.303 465.187L504.961 465.1L504.893 464.754C504.227 461.484 503.882 458.157 503.863 454.82C503.863 444.395 507.644 435.62 514.51 430.113C521.983 424.119 532.696 422.275 544.685 424.919H583.022C587.237 424.924 591.278 426.6 594.258 429.579C597.238 432.558 598.914 436.597 598.919 440.81V465.077L598.501 465.187C583.338 469.17 567.726 471.193 552.047 471.207Z" fill="#2F2E41"/>
<path d="M284.81 427.66C283.094 428.288 281.697 429.57 280.926 431.226C280.154 432.882 280.071 434.776 280.695 436.493L322.052 549.929C322.68 551.644 323.963 553.041 325.619 553.812C327.276 554.584 329.171 554.667 330.888 554.043L491.404 495.567C493.12 494.94 494.517 493.658 495.289 492.002C496.06 490.346 496.143 488.452 495.519 486.735L454.162 373.299C453.534 371.584 452.251 370.187 450.595 369.416C448.938 368.644 447.044 368.561 445.326 369.185L284.81 427.66Z" fill="#CCCCCC"/>
<path d="M431.663 511.077L333.411 546.87C331.563 547.541 329.523 547.452 327.74 546.622C325.958 545.792 324.577 544.289 323.901 542.442L286.391 439.557C285.719 437.709 285.808 435.67 286.639 433.888C287.469 432.106 288.973 430.726 290.82 430.051L442.265 374.879C444.114 374.208 446.153 374.297 447.936 375.128C449.719 375.958 451.1 377.461 451.775 379.307L469.9 429.021C475.695 444.971 474.924 462.569 467.756 477.952C460.588 493.335 447.607 505.248 431.663 511.077V511.077Z" fill="white"/>
<path d="M360.965 436.751L337.617 445.257C337.324 445.363 337.014 445.411 336.702 445.398C336.391 445.384 336.085 445.31 335.803 445.178C335.52 445.047 335.266 444.861 335.056 444.631C334.845 444.402 334.682 444.133 334.575 443.84C334.468 443.548 334.42 443.237 334.434 442.925C334.447 442.614 334.522 442.309 334.654 442.026C334.785 441.744 334.971 441.49 335.201 441.28C335.43 441.069 335.699 440.906 335.992 440.799L359.34 432.294C359.932 432.078 360.584 432.106 361.155 432.372C361.725 432.638 362.167 433.119 362.382 433.71C362.598 434.301 362.57 434.954 362.304 435.524C362.038 436.094 361.557 436.536 360.965 436.751H360.965Z" fill="#F9520D"/>
<path d="M416.628 426.8L340.941 454.372C340.648 454.479 340.337 454.528 340.026 454.514C339.714 454.501 339.408 454.427 339.125 454.295C338.843 454.164 338.588 453.978 338.378 453.748C338.167 453.519 338.003 453.25 337.896 452.957C337.79 452.664 337.742 452.353 337.755 452.041C337.769 451.73 337.844 451.424 337.975 451.142C338.107 450.859 338.294 450.605 338.524 450.395C338.754 450.184 339.023 450.021 339.316 449.915L415.003 422.342C415.296 422.235 415.607 422.187 415.918 422.201C416.229 422.214 416.535 422.289 416.817 422.421C417.1 422.552 417.354 422.738 417.564 422.968C417.775 423.197 417.938 423.466 418.045 423.759C418.152 424.051 418.2 424.362 418.186 424.673C418.173 424.985 418.098 425.29 417.967 425.572C417.835 425.855 417.649 426.109 417.419 426.319C417.19 426.53 416.921 426.693 416.628 426.8V426.8Z" fill="#F9520D"/>
<path d="M420.443 437.263L344.756 464.836C344.463 464.942 344.152 464.99 343.841 464.977C343.53 464.964 343.224 464.889 342.941 464.757C342.659 464.626 342.405 464.44 342.194 464.21C341.984 463.981 341.82 463.712 341.714 463.419C341.607 463.127 341.559 462.816 341.573 462.505C341.586 462.193 341.661 461.888 341.792 461.605C341.924 461.323 342.11 461.069 342.339 460.859C342.569 460.648 342.838 460.485 343.131 460.378L418.817 432.806C419.409 432.591 420.061 432.62 420.631 432.886C421.201 433.152 421.642 433.633 421.857 434.223C422.072 434.814 422.044 435.466 421.779 436.036C421.514 436.606 421.033 437.047 420.443 437.263V437.263Z" fill="#F9520D"/>
<path d="M424.258 447.727L348.571 475.299C348.278 475.407 347.967 475.455 347.656 475.442C347.344 475.429 347.038 475.354 346.755 475.223C346.472 475.091 346.218 474.905 346.007 474.676C345.797 474.446 345.633 474.177 345.526 473.884C345.419 473.591 345.371 473.28 345.385 472.968C345.399 472.657 345.473 472.351 345.605 472.069C345.737 471.786 345.923 471.532 346.154 471.322C346.384 471.111 346.653 470.948 346.946 470.842L422.633 443.269C422.925 443.163 423.236 443.115 423.548 443.128C423.859 443.142 424.165 443.216 424.447 443.348C424.73 443.479 424.984 443.665 425.194 443.895C425.405 444.124 425.568 444.393 425.675 444.686C425.782 444.979 425.83 445.289 425.816 445.601C425.803 445.912 425.728 446.217 425.596 446.5C425.465 446.782 425.279 447.036 425.049 447.246C424.82 447.457 424.551 447.62 424.258 447.727V447.727Z" fill="#F9520D"/>
<path d="M428.073 458.19L352.386 485.763C351.795 485.978 351.142 485.95 350.571 485.684C350.001 485.419 349.559 484.937 349.344 484.346C349.128 483.755 349.156 483.103 349.422 482.532C349.688 481.962 350.169 481.521 350.761 481.305L426.447 453.733C426.74 453.626 427.051 453.578 427.363 453.592C427.674 453.605 427.979 453.68 428.262 453.811C428.544 453.943 428.798 454.129 429.009 454.358C429.22 454.588 429.383 454.857 429.49 455.149C429.596 455.442 429.644 455.753 429.631 456.064C429.617 456.375 429.543 456.681 429.411 456.963C429.28 457.246 429.094 457.499 428.864 457.71C428.634 457.92 428.365 458.084 428.073 458.19H428.073Z" fill="#F9520D"/>
<path d="M668.226 487.25L626.787 586.375C625.019 590.569 621.672 593.9 617.468 595.65C613.265 597.399 608.541 597.426 604.318 595.725C602.133 594.845 600.15 593.53 598.491 591.859C596.831 590.188 595.529 588.197 594.664 586.007C593.8 583.817 593.39 581.473 593.461 579.12C593.532 576.766 594.081 574.452 595.076 572.317L641.279 470.67L666.749 407.722C664.548 405.528 663.077 402.71 662.534 399.65C661.991 396.591 662.404 393.439 663.716 390.622C665.028 387.805 667.175 385.46 669.867 383.906C672.559 382.351 675.664 381.663 678.76 381.934C681.857 382.205 684.795 383.422 687.175 385.421C689.556 387.419 691.263 390.102 692.065 393.103C692.867 396.105 692.725 399.282 691.659 402.2C690.592 405.119 688.653 407.638 686.104 409.417L668.226 487.25Z" fill="#FFB6B6"/>
</g>
<mask id="mask1_3158_158236" style="mask-type:alpha" maskUnits="userSpaceOnUse" x="0" y="0" width="992" height="1120">
<g style="mix-blend-mode:hard-light">
<path fill-rule="evenodd" clip-rule="evenodd" d="M381.977 0C243.501 0 532.506 230.952 633.676 230.952H729.671C735.974 230.952 741.085 235.656 741.085 241.458V689.559C727.136 801.347 624.737 888.363 499.924 889.785C362.982 891.341 250.915 785.762 250.915 659.703V10.5014C250.915 4.70433 245.804 0 239.501 0H11.4139C5.11589 0 0 4.70433 0 10.5014V664.338C0 917.65 224.138 1121.89 499.823 1119.99C773.269 1118.1 992 909.519 992 657.819V10.5199C992 4.70896 986.884 0 980.576 0H381.977Z" fill="url(#paint0_linear_3158_158236)"/>
</g>
</mask>
<g mask="url(#mask1_3158_158236)">
<path d="M183 381C183 367.745 193.745 357 207 357H809V897H207C193.745 897 183 886.255 183 873V381Z" fill="#FFF2E8"/>
</g>
<defs>
<filter id="filter0_d_3158_158236" x="82" y="257" width="826" height="740" filterUnits="userSpaceOnUse" color-interpolation-filters="sRGB">
<feFlood flood-opacity="0" result="BackgroundImageFix"/>
<feColorMatrix in="SourceAlpha" type="matrix" values="0 0 0 0 0 0 0 0 0 0 0 0 0 0 0 0 0 0 127 0" result="hardAlpha"/>
<feOffset/>
<feGaussianBlur stdDeviation="50"/>
<feComposite in2="hardAlpha" operator="out"/>
<feColorMatrix type="matrix" values="0 0 0 0 0 0 0 0 0 0 0 0 0 0 0 0 0 0 0.04 0"/>
<feBlend mode="normal" in2="BackgroundImageFix" result="effect1_dropShadow_3158_158236"/>
<feBlend mode="normal" in="SourceGraphic" in2="effect1_dropShadow_3158_158236" result="shape"/>
</filter>
<linearGradient id="paint0_linear_3158_158236" x1="496.002" y1="1120" x2="496.002" y2="-0.00153542" gradientUnits="userSpaceOnUse">
<stop stop-color="#D9352C"/>
<stop offset="1" stop-color="#E05F2B"/>
</linearGradient>
<clipPath id="clip0_3158_158236">
<rect width="528" height="599" fill="white" transform="translate(233 292)"/>
</clipPath>
</defs>
</svg>
